<svg width="52" height="63" viewBox="0 0 52 63" fill="none" xmlns="http://www.w3.org/2000/svg">
<g id="a" clip-path="url(#clip0_482_285)">
<path id="Vector" d="M26 61.417L10.71 52.243C4.686 48.629 1 42.118 1 35.093V1.41699H51V35.093C51 42.118 47.314 48.628 41.29 52.243L26 61.417Z" stroke="#FF8A00" stroke-width="2" stroke-miterlimit="10" stroke-linecap="round"/>
<path id="Vector_2" d="M13.5 25.8378C13.5 24.1238 14.889 22.7348 16.603 22.7348C17.846 22.7348 18.915 23.4678 19.41 24.5228H26.948V27.1828L19.403 27.1678C18.905 28.2148 17.84 28.9408 16.603 28.9408C14.889 28.9408 13.5 27.5518 13.5 25.8378ZM35.338 17.9478C33.23 16.1558 30.265 15.2588 26.443 15.2588L13.649 15.2848V19.0998H26.118C28.6 19.0998 30.481 19.6368 31.762 20.7108C33.042 21.7848 33.683 23.4938 33.683 25.8378C33.683 28.1628 33.043 29.8668 31.762 30.9498C30.481 32.0338 28.6 32.5748 26.118 32.5748H13.649V36.4168H26.443C30.265 36.4168 33.23 35.5208 35.338 33.7278C37.446 31.9358 38.5 29.3058 38.5 25.8378C38.5 22.3698 37.446 19.7408 35.338 17.9478Z" fill="#FF8A00"/>
</g>
<defs>
<clipPath id="clip0_482_285">
<rect width="52" height="62.166" fill="white" transform="translate(0 0.416992)"/>
</clipPath>
</defs>
</svg>
